<svg width="64" height="64" viewBox="0 0 64 64" fill="none" xmlns="http://www.w3.org/2000/svg">
  <!-- Background -->
  <rect width="64" height="64" fill="#0a0a0a"/>

  <!-- Grid lines for cyber aesthetic -->
  <line x1="0" y1="16" x2="64" y2="16" stroke="#0f0" stroke-width="0.5" opacity="0.15"/>
  <line x1="0" y1="32" x2="64" y2="32" stroke="#0f0" stroke-width="0.5" opacity="0.15"/>
  <line x1="0" y1="48" x2="64" y2="48" stroke="#0f0" stroke-width="0.5" opacity="0.15"/>
  <line x1="16" y1="0" x2="16" y2="64" stroke="#0f0" stroke-width="0.5" opacity="0.15"/>
  <line x1="32" y1="0" x2="32" y2="64" stroke="#0f0" stroke-width="0.5" opacity="0.15"/>
  <line x1="48" y1="0" x2="48" y2="64" stroke="#0f0" stroke-width="0.5" opacity="0.15"/>

  <!-- "S" Letter -->
  <g id="letterS">
    <path d="M 18 16 L 46 16 L 46 26 L 28 26 L 28 32 L 46 32 L 46 48 L 18 48 L 18 38 L 36 38 L 36 32 L 18 32 Z"
          fill="none"
          stroke="#0f0"
          stroke-width="2.5"
          stroke-linejoin="miter">
      <animate attributeName="opacity"
               values="1;0;1"
               dur="4s"
               repeatCount="indefinite"/>
    </path>

    <!-- S glow -->
    <path d="M 18 16 L 46 16 L 46 26 L 28 26 L 28 32 L 46 32 L 46 48 L 18 48 L 18 38 L 36 38 L 36 32 L 18 32 Z"
          fill="none"
          stroke="#0f0"
          stroke-width="1"
          opacity="0.4"
          filter="url(#glow)">
      <animate attributeName="opacity"
               values="0.4;0;0.4"
               dur="4s"
               repeatCount="indefinite"/>
    </path>
  </g>

  <!-- "N" Letter -->
  <g id="letterN">
    <path d="M 18 16 L 18 48 L 24 48 L 24 32 L 40 48 L 46 48 L 46 16 L 40 16 L 40 32 L 24 16 Z"
          fill="none"
          stroke="#ff0055"
          stroke-width="2.5"
          stroke-linejoin="miter">
      <animate attributeName="opacity"
               values="0;1;0"
               dur="4s"
               repeatCount="indefinite"/>
    </path>

    <!-- N glow -->
    <path d="M 18 16 L 18 48 L 24 48 L 24 32 L 40 48 L 46 48 L 46 16 L 40 16 L 40 32 L 24 16 Z"
          fill="none"
          stroke="#ff0055"
          stroke-width="1"
          opacity="0"
          filter="url(#glowPink)">
      <animate attributeName="opacity"
               values="0;0.4;0"
               dur="4s"
               repeatCount="indefinite"/>
    </path>
  </g>

  <!-- Neural nodes that pulse -->
  <circle cx="18" cy="16" r="2" fill="#0f0">
    <animate attributeName="opacity" values="1;0.3;1" dur="2s" repeatCount="indefinite"/>
  </circle>
  <circle cx="46" cy="48" r="2" fill="#ff0055">
    <animate attributeName="opacity" values="0.3;1;0.3" dur="2s" repeatCount="indefinite"/>
  </circle>

  <!-- Glow filter definitions -->
  <defs>
    <filter id="glow" x="-50%" y="-50%" width="200%" height="200%">
      <feGaussianBlur stdDeviation="2.5" result="coloredBlur"/>
      <feMerge>
        <feMergeNode in="coloredBlur"/>
        <feMergeNode in="SourceGraphic"/>
      </feMerge>
    </filter>
    <filter id="glowPink" x="-50%" y="-50%" width="200%" height="200%">
      <feGaussianBlur stdDeviation="2.5" result="coloredBlur"/>
      <feMerge>
        <feMergeNode in="coloredBlur"/>
        <feMergeNode in="SourceGraphic"/>
      </feMerge>
    </filter>
  </defs>
</svg>
